<svg xmlns="http://www.w3.org/2000/svg" viewBox="0 0 360 96" role="img" aria-labelledby="title desc">
  <title id="title">StudyHub</title>
  <desc id="desc">A blue StudyHub book mark with a dark wordmark for light backgrounds.</desc>

  <rect x="4" y="4" width="88" height="88" rx="24" fill="#2563EB"/>

  <g fill="none" stroke="#FFFFFF" stroke-linecap="round" stroke-linejoin="round">
    <path d="M48 47C40 38 31 35 19 36v27c12-1 21 3 29 12V47Z" stroke-width="3.5"/>
    <path d="M48 47c8-9 17-12 29-11v27c-12-1-21 3-29 12V47Z" stroke-width="3.5"/>
    <path d="M19 63c12 0 21 3 29 12 8-9 17-12 29-12" stroke-width="3.5"/>
    <path d="M48 47v28" stroke-width="3"/>
    <path d="M27 50c7 0 12 2 17 6M69 50c-7 0-12 2-17 6M27 57c7 0 12 2 17 6M69 57c-7 0-12 2-17 6" stroke-width="2.5"/>
    <path d="M48 17v18M34 22l7 15M62 22l-7 15M24 31l14 9M72 31l-14 9" stroke-width="3"/>
  </g>

  <text x="112" y="61" fill="#0F172A" font-family="Inter, Arial, sans-serif" font-size="42" font-weight="700" letter-spacing="-1.5">Study</text>
  <text x="231" y="61" fill="#2563EB" font-family="Inter, Arial, sans-serif" font-size="42" font-weight="700" letter-spacing="-1.5">Hub</text>
</svg>
